<?xml version="1.0" encoding="utf-8"?>
<!-- Generator: Adobe Illustrator 19.0.0, SVG Export Plug-In . SVG Version: 6.00 Build 0)  -->
<svg version="1.1" id="Layer_1" xmlns="http://www.w3.org/2000/svg" xmlns:xlink="http://www.w3.org/1999/xlink" x="0px" y="0px"
	 viewBox="-36 325 538 144" style="enable-background:new -36 325 538 144;" xml:space="preserve">
<style type="text/css">
	.st0{fill:#FFFFFF;}
</style>
<title>Litewallet Logo Dark</title>
<desc>Created with Sketch.</desc>
<g id="Page-1">
	<g id="Litewallet-Logo-Dark" transform="translate(-49.000000, -29.000000)">
		<g transform="translate(49.000000, 29.000000)">
			<g id="Group-3">
				<g>
					<g id="Group-2">
						<path class="st0" d="M36,325c-39.8,0-72,32.2-72,72s32.2,72,72,72s72-32.2,72-72S75.8,325,36,325z M-2,400h-11v-11h11V400z
							 M15,400H4v-11h11V400z M32,433H21v-11h11V433z M32,416H21v-11h11V416z M32,400H21v-11h11V400z M32,383H21v-11h11V383z
							 M32,366H21v-11h11V366z M48,433H37v-11h11V433z M48,400H37v-11h11V400z M65,433H54v-11h11V433z M65,400H54v-11h11V400z
							 M65,383H54v-11h11V383z M65,366H54v-11h11V366z"/>
					</g>
				</g>
			</g>
			<path id="Litewallet" class="st0" d="M159.1,425v-55.3h8.3v48.1h25v7.2H159.1z M201.4,425v-41.5h8.1V425H201.4z M205.5,377.1
				c-1.4,0-2.6-0.5-3.6-1.4s-1.5-2.1-1.5-3.4c0-1.3,0.5-2.5,1.5-3.4c1-0.9,2.2-1.4,3.6-1.4c1.4,0,2.6,0.5,3.6,1.4
				c1,0.9,1.5,2.1,1.5,3.4c0,1.3-0.5,2.4-1.5,3.4S206.8,377.1,205.5,377.1z M239.7,383.5v6.5h-8.5v22.8c0,2.3,0.5,3.8,1.5,4.5
				c1,0.7,2.2,1,3.5,1c0.6,0,1.2,0,1.7-0.1c0.5-0.1,0.9-0.2,1.1-0.2l1.5,6.7c-0.5,0.2-1.1,0.4-2,0.6s-1.9,0.3-3.2,0.3
				c-2.1,0-4.1-0.3-6-1.1c-1.8-0.8-3.3-2-4.5-3.7c-1.1-1.7-1.7-3.7-1.7-6.2V390H217v-6.5h6.1v-9.9h8.1v9.9H239.7z M266,425.8
				c-4.1,0-7.6-0.9-10.5-2.6c-3-1.8-5.2-4.2-6.8-7.4c-1.6-3.2-2.4-6.9-2.4-11.2c0-4.2,0.8-8,2.4-11.2s3.8-5.8,6.7-7.6
				c2.9-1.8,6.2-2.7,10.1-2.7c3.1,0,6.1,0.7,8.9,2.1c2.8,1.4,5.1,3.6,6.8,6.7c1.8,3,2.6,7.1,2.6,12.1v2.9h-29.5
				c0.1,4,1.2,7.1,3.4,9.2c2.1,2.2,4.9,3.2,8.4,3.2c2.3,0,4.3-0.5,6-1.5c1.7-1,2.9-2.5,3.6-4.4l7.6,1.4c-0.9,3.4-2.9,6.1-5.9,8.1
				C274.3,424.8,270.5,425.8,266,425.8z M254.3,400.7h21.5c0-3.2-1-5.8-2.9-7.9c-1.9-2.1-4.4-3.1-7.5-3.1c-2.2,0-4.1,0.5-5.7,1.5
				c-1.6,1-2.9,2.4-3.9,4S254.4,398.7,254.3,400.7z M301.6,425l-12.2-41.5h8.3l8.1,30.4h0.4l8.2-30.4h8.3l8.1,30.3h0.4l8.1-30.3h8.3
				L335.5,425h-8.2l-8.4-29.9h-0.6l-8.4,29.9H301.6z M367.4,425.9c-2.6,0-5-0.5-7.1-1.5c-2.1-1-3.8-2.4-5-4.3s-1.9-4.2-1.9-6.9
				c0-2.4,0.5-4.3,1.4-5.8s2.1-2.7,3.6-3.6c1.5-0.9,3.2-1.5,5.1-2s3.8-0.8,5.8-1c2.5-0.3,4.5-0.5,6-0.7c1.5-0.2,2.7-0.5,3.4-0.9
				c0.7-0.4,1.1-1.1,1.1-2.1V397c0-2.4-0.7-4.2-2-5.5c-1.3-1.3-3.3-1.9-5.9-1.9c-2.7,0-4.9,0.6-6.4,1.8c-1.6,1.2-2.6,2.5-3.2,4
				l-7.6-1.7c1.3-3.8,3.6-6.5,6.8-8.1c3.2-1.6,6.6-2.5,10.4-2.5c1.7,0,3.4,0.2,5.3,0.6c1.9,0.4,3.6,1.1,5.2,2.1c1.6,1,3,2.5,4,4.4
				s1.6,4.3,1.6,7.4V425H380v-5.7h-0.3c-0.8,1.5-2.2,3-4.1,4.5C373.6,425.2,370.9,425.9,367.4,425.9z M369.2,419.4
				c2.2,0,4.2-0.4,5.7-1.3c1.6-0.9,2.8-2,3.6-3.5c0.8-1.4,1.3-3,1.3-4.6v-5.3c-0.4,0.4-1.2,0.7-2.5,1s-2.6,0.5-4,0.7
				c-1.4,0.2-2.6,0.4-3.5,0.5c-2.3,0.3-4.3,0.9-6,1.8s-2.5,2.5-2.5,4.6c0,2,0.7,3.5,2.2,4.5C365,418.9,366.9,419.4,369.2,419.4z
				 M406.7,369.7V425h-8.1v-55.3H406.7z M425.6,369.7V425h-8.1v-55.3H425.6z M454.3,425.8c-4.1,0-7.6-0.9-10.5-2.6
				c-3-1.8-5.2-4.2-6.8-7.4c-1.6-3.2-2.4-6.9-2.4-11.2c0-4.2,0.8-8,2.4-11.2c1.6-3.2,3.8-5.8,6.7-7.6s6.2-2.7,10.1-2.7
				c3.1,0,6.1,0.7,8.9,2.1c2.8,1.4,5.1,3.6,6.8,6.7c1.8,3,2.6,7.1,2.6,12.1v2.9h-29.5c0.1,4,1.2,7.1,3.4,9.2
				c2.1,2.2,4.9,3.2,8.4,3.2c2.3,0,4.3-0.5,6-1.5c1.7-1,2.9-2.5,3.6-4.4l7.6,1.4c-0.9,3.4-2.9,6.1-5.9,8.1S458.8,425.8,454.3,425.8z
				 M442.7,400.7h21.5c0-3.2-1-5.8-2.9-7.9s-4.4-3.1-7.5-3.1c-2.2,0-4.1,0.5-5.7,1.5c-1.6,1-2.9,2.4-3.9,4
				C443.3,396.9,442.8,398.7,442.7,400.7z M500.4,383.5v6.5h-8.5v22.8c0,2.3,0.5,3.8,1.5,4.5s2.2,1,3.5,1c0.6,0,1.2,0,1.7-0.1
				c0.5-0.1,0.9-0.2,1.1-0.2l1.5,6.7c-0.5,0.2-1.1,0.4-2,0.6s-1.9,0.3-3.2,0.3c-2.1,0-4.1-0.3-6-1.1s-3.3-2-4.5-3.7
				c-1.1-1.7-1.7-3.7-1.7-6.2V390h-6.1v-6.5h6.1v-9.9h8.1v9.9H500.4z"/>
		</g>
	</g>
</g>
</svg>
