<?xml version="1.0" encoding="UTF-8"?>
<svg width="538px" height="144px" viewBox="0 0 538 144" version="1.1" xmlns="http://www.w3.org/2000/svg" xmlns:xlink="http://www.w3.org/1999/xlink">
    <!-- Generator: Sketch 52.3 (67297) - http://www.bohemiancoding.com/sketch -->
    <title>Litewallet Logo Dark</title>
    <desc>Created with Sketch.</desc>
    <g id="Page-1" stroke="none" stroke-width="1" fill="none" fill-rule="evenodd">
        <g id="Litewallet-Logo-Dark" transform="translate(-49.000000, -29.000000)">
            <g transform="translate(49.000000, 29.000000)">
                <g id="Group-3">
                    <g>
                        <g id="Group-2">
                            <circle id="Oval" fill="#FFFFFF" cx="72" cy="72" r="72"></circle>
                            <g id="Group" transform="translate(23.000000, 30.000000)" fill="#3600B3">
                                <path d="M34,0 L45,0 L45,11 L34,11 L34,0 Z M34,17 L45,17 L45,28 L34,28 L34,17 Z M34,34 L45,34 L45,45 L34,45 L34,34 Z M50,34 L61,34 L61,45 L50,45 L50,34 Z M67,34 L78,34 L78,45 L67,45 L67,34 Z M67,17 L78,17 L78,28 L67,28 L67,17 Z M67,0 L78,0 L78,11 L67,11 L67,0 Z M34,50 L45,50 L45,61 L34,61 L34,50 Z M34,67 L45,67 L45,78 L34,78 L34,67 Z M17,34 L28,34 L28,45 L17,45 L17,34 Z M0,34 L11,34 L11,45 L0,45 L0,34 Z M50,67 L61,67 L61,78 L50,78 L50,67 Z M67,67 L78,67 L78,78 L67,78 L67,67 Z" id="Combined-Shape"></path>
                            </g>
                        </g>
                    </g>
                </g>
                <path d="M195.146307,100 L195.146307,44.7272727 L203.485795,44.7272727 L203.485795,92.8210227 L228.53125,92.8210227 L228.53125,100 L195.146307,100 Z M237.383523,100 L237.383523,58.5454545 L245.453125,58.5454545 L245.453125,100 L237.383523,100 Z M241.458807,52.1491477 C240.055391,52.1491477 238.854408,51.6768513 237.855824,50.7322443 C236.857239,49.7876373 236.357955,48.658624 236.357955,47.3451705 C236.357955,46.0137244 236.857239,44.875715 237.855824,43.931108 C238.854408,42.986501 240.055391,42.5142045 241.458807,42.5142045 C242.84423,42.5142045 244.040715,42.986501 245.048295,43.931108 C246.055876,44.875715 246.559659,46.0137244 246.559659,47.3451705 C246.559659,48.658624 246.055876,49.7876373 245.048295,50.7322443 C244.040715,51.6768513 242.84423,52.1491477 241.458807,52.1491477 Z M275.653409,58.5454545 L275.653409,65.0227273 L267.151989,65.0227273 L267.151989,87.828125 C267.151989,90.1671518 267.651273,91.6740023 268.649858,92.3487216 C269.648442,93.0234409 270.804444,93.3607955 272.117898,93.3607955 C272.765628,93.3607955 273.332384,93.3158148 273.818182,93.2258523 C274.30398,93.1358897 274.681817,93.0639207 274.951705,93.0099432 L276.409091,99.6761364 C275.941286,99.8560615 275.271074,100.040482 274.398438,100.229403 C273.525801,100.418325 272.450764,100.52178 271.173295,100.539773 C269.050179,100.575758 267.066534,100.197921 265.222301,99.40625 C263.378068,98.6145794 261.893708,97.3911068 260.769176,95.7357955 C259.644644,94.0804841 259.082386,92.0023799 259.082386,89.5014205 L259.082386,65.0227273 L253.009943,65.0227273 L253.009943,58.5454545 L259.082386,58.5454545 L259.082386,48.6136364 L267.151989,48.6136364 L267.151989,58.5454545 L275.653409,58.5454545 Z M301.994318,100.836648 C297.92801,100.836648 294.419522,99.9550278 291.46875,98.1917614 C288.517978,96.428495 286.246457,93.9500633 284.654119,90.756392 C283.061782,87.5627208 282.265625,83.824832 282.265625,79.5426136 C282.265625,75.2963803 283.061782,71.5539935 284.654119,68.3153409 C286.246457,65.0766884 288.477495,62.548778 291.347301,60.7315341 C294.217107,58.9142902 297.577159,58.0056818 301.427557,58.0056818 C304.558254,58.0056818 307.522477,58.7028813 310.320313,60.0973011 C313.118148,61.491721 315.394167,63.7137632 317.148438,66.7634943 C318.902708,69.8132255 319.77983,73.8389901 319.77983,78.8409091 L319.77983,81.7017045 L290.308239,81.7017045 C290.416194,85.6960427 291.540709,88.7727165 293.681818,90.9318182 C295.822927,93.0909199 298.620721,94.1704545 302.075284,94.1704545 C304.378326,94.1704545 306.366469,93.6756678 308.039773,92.6860795 C309.713077,91.6964913 310.909561,90.2211272 311.629261,88.2599432 L319.267045,89.6363636 C318.349427,93.0009638 316.37028,95.7087966 313.329545,97.7599432 C310.288811,99.8110898 306.510439,100.836648 301.994318,100.836648 Z M290.335227,75.65625 L311.872159,75.65625 C311.854167,72.4895675 310.900578,69.8671979 309.011364,67.7890625 C307.12215,65.7109271 304.612232,64.671875 301.481534,64.671875 C299.30444,64.671875 297.40176,65.1801559 295.773438,66.196733 C294.145115,67.21331 292.858669,68.5537322 291.914063,70.2180398 C290.969456,71.8823473 290.443182,73.695066 290.335227,75.65625 Z M337.646307,100 L325.447443,58.5454545 L333.786932,58.5454545 L341.910511,88.9886364 L342.315341,88.9886364 L350.465909,58.5454545 L358.805398,58.5454545 L366.901989,88.8536932 L367.306818,88.8536932 L375.37642,58.5454545 L383.715909,58.5454545 L371.544034,100 L363.3125,100 L354.892045,70.0696023 L354.271307,70.0696023 L345.850852,100 L337.646307,100 Z M403.417614,100.917614 C400.790707,100.917614 398.420228,100.431823 396.306108,99.4602273 C394.191988,98.4886315 392.514211,97.0627461 391.272727,95.1825284 C390.031244,93.3023107 389.410511,91.0038015 389.410511,88.2869318 C389.410511,85.9299125 389.864816,83.9957462 390.773438,82.484375 C391.682059,80.9730038 392.896536,79.7765196 394.416903,78.8948864 C395.937271,78.0132532 397.642036,77.3520382 399.53125,76.9112216 C401.420464,76.470405 403.345634,76.1330504 405.306818,75.8991477 C407.789785,75.6112675 409.800418,75.3728703 411.338778,75.1839489 C412.877138,74.9950275 414.001654,74.6846613 414.712358,74.2528409 C415.423062,73.8210206 415.778409,73.119323 415.778409,72.1477273 L415.778409,71.9588068 C415.778409,69.6017875 415.117194,67.7755747 413.794744,66.4801136 C412.472295,65.1846526 410.506642,64.5369318 407.897727,64.5369318 C405.180858,64.5369318 403.044279,65.1306759 401.487926,66.3181818 C399.931574,67.5056878 398.856537,68.8371138 398.262784,70.3125 L390.678977,68.5852273 C392.028416,64.8067993 394.281944,62.0989665 397.439631,60.4616477 C400.597317,58.8243289 404.04733,58.0056818 407.789773,58.0056818 C409.445084,58.0056818 411.199328,58.1990984 413.052557,58.5859375 C414.905786,58.9727766 416.655532,59.6834702 418.301847,60.7180398 C419.948162,61.7526093 421.288584,63.2144792 422.323153,65.1036932 C423.357723,66.9929072 423.875,69.4488485 423.875,72.4715909 L423.875,100 L415.994318,100 L415.994318,94.3323864 L415.670455,94.3323864 C414.896776,95.8797426 413.52037,97.3641027 411.541193,98.7855114 C409.562017,100.20692 406.854184,100.917614 403.417614,100.917614 Z M405.171875,94.4403409 C407.420939,94.4403409 409.337113,93.9995309 410.920455,93.1178977 C412.503796,92.2362645 413.713774,91.0802628 414.550426,89.649858 C415.387078,88.2194531 415.805398,86.6856142 415.805398,85.0482955 L415.805398,79.7045455 C415.427555,80.0823883 414.599912,80.4152448 413.322443,80.703125 C412.044975,80.9910052 410.695556,81.2339005 409.274148,81.4318182 C407.852739,81.6297358 406.701235,81.791666 405.819602,81.9176136 C403.480575,82.2234864 401.478938,82.8397207 399.814631,83.7663352 C398.150323,84.6929497 397.318182,86.2357847 397.318182,88.3948864 C397.318182,90.3920554 398.055864,91.8989059 399.53125,92.915483 C401.006636,93.93206 402.886826,94.4403409 405.171875,94.4403409 Z M442.68608,44.7272727 L442.68608,100 L434.616477,100 L434.616477,44.7272727 L442.68608,44.7272727 Z M461.605114,44.7272727 L461.605114,100 L453.535511,100 L453.535511,44.7272727 L461.605114,44.7272727 Z M490.321023,100.836648 C486.254715,100.836648 482.746227,99.9550278 479.795455,98.1917614 C476.844682,96.428495 474.573161,93.9500633 472.980824,90.756392 C471.388486,87.5627208 470.59233,83.824832 470.59233,79.5426136 C470.59233,75.2963803 471.388486,71.5539935 472.980824,68.3153409 C474.573161,65.0766884 476.8042,62.548778 479.674006,60.7315341 C482.543812,58.9142902 485.903863,58.0056818 489.754261,58.0056818 C492.884959,58.0056818 495.849181,58.7028813 498.647017,60.0973011 C501.444853,61.491721 503.720872,63.7137632 505.475142,66.7634943 C507.229412,69.8132255 508.106534,73.8389901 508.106534,78.8409091 L508.106534,81.7017045 L478.634943,81.7017045 C478.742898,85.6960427 479.867414,88.7727165 482.008523,90.9318182 C484.149632,93.0909199 486.947426,94.1704545 490.401989,94.1704545 C492.70503,94.1704545 494.693173,93.6756678 496.366477,92.6860795 C498.039781,91.6964913 499.236265,90.2211272 499.955966,88.2599432 L507.59375,89.6363636 C506.676132,93.0009638 504.696985,95.7087966 501.65625,97.7599432 C498.615515,99.8110898 494.837144,100.836648 490.321023,100.836648 Z M478.661932,75.65625 L500.198864,75.65625 C500.180871,72.4895675 499.227282,69.8671979 497.338068,67.7890625 C495.448854,65.7109271 492.938936,64.671875 489.808239,64.671875 C487.631144,64.671875 485.728465,65.1801559 484.100142,66.196733 C482.47182,67.21331 481.185374,68.5537322 480.240767,70.2180398 C479.29616,71.8823473 478.769887,73.695066 478.661932,75.65625 Z M536.444602,58.5454545 L536.444602,65.0227273 L527.943182,65.0227273 L527.943182,87.828125 C527.943182,90.1671518 528.442467,91.6740023 529.441051,92.3487216 C530.439636,93.0234409 531.595637,93.3607955 532.909091,93.3607955 C533.556821,93.3607955 534.123577,93.3158148 534.609375,93.2258523 C535.095173,93.1358897 535.47301,93.0639207 535.742898,93.0099432 L537.200284,99.6761364 C536.732479,99.8560615 536.062268,100.040482 535.189631,100.229403 C534.316994,100.418325 533.241957,100.52178 531.964489,100.539773 C529.841372,100.575758 527.857727,100.197921 526.013494,99.40625 C524.169262,98.6145794 522.684901,97.3911068 521.560369,95.7357955 C520.435837,94.0804841 519.87358,92.0023799 519.87358,89.5014205 L519.87358,65.0227273 L513.801136,65.0227273 L513.801136,58.5454545 L519.87358,58.5454545 L519.87358,48.6136364 L527.943182,48.6136364 L527.943182,58.5454545 L536.444602,58.5454545 Z" id="Litewallet" fill="#FFFFFF"></path>
            </g>
        </g>
    </g>
</svg>