<?xml version="1.0" encoding="UTF-8"?>
<svg width="720px" height="200px" viewBox="0 0 720 200" version="1.1" xmlns="http://www.w3.org/2000/svg" xmlns:xlink="http://www.w3.org/1999/xlink">
    <!-- Generator: Sketch 52.5 (67469) - http://www.bohemiancoding.com/sketch -->
    <title>Litewallet Logo Dark</title>
    <desc>Created with Sketch.</desc>
    <defs>
        <linearGradient x1="12.7712674%" y1="18.3837891%" x2="91.7751736%" y2="79.1341146%" id="linearGradient-1">
            <stop stop-color="#7A23E1" offset="0%"></stop>
            <stop stop-color="#440FBF" offset="100%"></stop>
        </linearGradient>
    </defs>
    <g id="Litewallet-Logo-Dark" stroke="none" stroke-width="1" fill="none" fill-rule="evenodd">
        <g transform="translate(49.000000, 29.000000)" id="Group-3">
            <g>
                <g>
                    <g id="Group-2">
                        <circle id="Oval" fill="url(#linearGradient-1)" cx="72" cy="72" r="72"></circle>
                        <g id="Group" transform="translate(23.000000, 30.000000)" fill="#FFFFFF">
                            <rect id="Rectangle" x="34" y="0" width="11" height="11"></rect>
                            <rect id="Rectangle-Copy" x="34" y="17" width="11" height="11"></rect>
                            <rect id="Rectangle-Copy-2" x="34" y="34" width="11" height="11"></rect>
                            <rect id="Rectangle-Copy-9" x="50" y="34" width="11" height="11"></rect>
                            <rect id="Rectangle-Copy-10" x="67" y="34" width="11" height="11"></rect>
                            <rect id="Rectangle-Copy-11" x="67" y="17" width="11" height="11"></rect>
                            <rect id="Rectangle-Copy-12" x="67" y="0" width="11" height="11"></rect>
                            <rect id="Rectangle-Copy-3" x="34" y="50" width="11" height="11"></rect>
                            <rect id="Rectangle-Copy-4" x="34" y="67" width="11" height="11"></rect>
                            <rect id="Rectangle-Copy-7" x="17" y="34" width="11" height="11"></rect>
                            <rect id="Rectangle-Copy-8" x="0" y="34" width="11" height="11"></rect>
                            <rect id="Rectangle-Copy-5" x="50" y="67" width="11" height="11"></rect>
                            <rect id="Rectangle-Copy-6" x="67" y="67" width="11" height="11"></rect>
                        </g>
                    </g>
                </g>
            </g>
        </g>
        <path d="M237.986,124 L237.986,71.805 L247.695,71.805 L247.695,116.262 L269.96,116.262 L269.96,124 L237.986,124 Z M280.148715,124 L280.148715,85.821 L288.981715,85.821 L288.981715,124 L280.148715,124 Z M288.178715,78.083 C287.15671,79.0563382 285.915723,79.543 284.455715,79.543 C282.995708,79.543 281.75472,79.0563382 280.732715,78.083 C279.71071,77.1096618 279.199715,75.9173404 279.199715,74.506 C279.199715,73.0459927 279.71071,71.8293382 280.732715,70.856 C281.75472,69.8826618 282.995708,69.396 284.455715,69.396 C285.915723,69.396 287.15671,69.8826618 288.178715,70.856 C289.20072,71.8293382 289.711715,73.0459927 289.711715,74.506 C289.711715,75.9173404 289.20072,77.1096618 288.178715,78.083 Z M315.157431,124.657 C311.410079,124.657 308.55094,123.683676 306.579931,121.737 C304.608921,119.790324 303.623431,116.992018 303.623431,113.342 L303.623431,92.464 L298.513431,92.464 L298.513431,85.821 L303.623431,85.821 L303.623431,77.426 L312.456431,77.426 L312.456431,85.821 L320.851431,85.821 L320.851431,92.464 L312.456431,92.464 L312.456431,112.539 C312.456431,115.799683 313.916416,117.43 316.836431,117.43 C318.539772,117.43 319.975425,117.186669 321.143431,116.7 L321.143431,123.708 C319.440089,124.34067 317.444775,124.657 315.157431,124.657 Z M348.341146,124.73 C342.647117,124.73 337.999497,122.978018 334.398146,119.474 C330.796795,115.969982 328.996146,111.249363 328.996146,105.312 L328.996146,104.728 C328.996146,98.8879708 330.784628,94.1430183 334.361646,90.493 C337.938664,86.8429818 342.476785,85.018 347.976146,85.018 C353.134838,85.018 357.429629,86.6239839 360.860646,89.836 C364.291663,93.0480161 366.007146,97.8659679 366.007146,104.29 L366.007146,106.845 L338.048146,106.845 C338.194147,110.495018 339.16747,113.293324 340.968146,115.24 C342.768822,117.186676 345.299463,118.16 348.560146,118.16 C353.718838,118.16 356.638809,116.213353 357.320146,112.32 L365.861146,112.32 C365.228476,116.310687 363.379161,119.376656 360.313146,121.518 C357.247131,123.659344 353.256504,124.73 348.341146,124.73 Z M338.194146,100.932 L357.247146,100.932 C356.809144,94.6053017 353.718841,91.442 347.976146,91.442 C345.348133,91.442 343.170321,92.2814916 341.442646,93.9605 C339.714971,95.6395084 338.632148,97.9633185 338.194146,100.932 Z M383.495861,124 L371.815861,85.821 L381.232861,85.821 L388.824861,113.415 L396.927861,85.821 L404.300861,85.821 L411.746861,113.415 L419.703861,85.821 L428.317861,85.821 L416.345861,124 L407.366861,124 L400.285861,98.304 L392.547861,124 L383.495861,124 Z M446.390577,124.73 C442.643224,124.73 439.577255,123.793176 437.192577,121.9195 C434.807898,120.045824 433.615577,117.211019 433.615577,113.415 C433.615577,109.229646 435.391892,106.163676 438.944577,104.217 C442.497261,102.270324 447.242213,101.297 453.179577,101.297 L457.924577,101.297 L457.924577,99.326 C457.924577,96.6979869 457.401415,94.7635062 456.355077,93.5225 C455.308738,92.2814938 453.520256,91.661 450.989577,91.661 C446.560888,91.661 444.127579,93.6563134 443.689577,97.647 L435.148577,97.647 C435.489245,93.4129788 437.156062,90.2496771 440.149077,88.157 C443.142091,86.0643229 446.925887,85.018 451.500577,85.018 C461.671961,85.018 466.757577,89.6656202 466.757577,98.961 L466.757577,124 L458.070577,124 L458.070577,119.328 C455.34523,122.929351 451.451935,124.73 446.390577,124.73 Z M448.507577,118.379 C451.28159,118.379 453.544568,117.685507 455.296577,116.2985 C457.048585,114.911493 457.924577,113.025679 457.924577,110.641 L457.924577,106.845 L453.398577,106.845 C446.049873,106.845 442.375577,108.913313 442.375577,113.05 C442.375577,116.602684 444.419556,118.379 448.507577,118.379 Z M479.574292,124 L479.574292,68.155 L488.407292,68.155 L488.407292,124 L479.574292,124 Z M501.808007,124 L501.808007,68.155 L510.641007,68.155 L510.641007,124 L501.808007,124 Z M540.612722,124.73 C534.918694,124.73 530.271074,122.978018 526.669722,119.474 C523.068371,115.969982 521.267722,111.249363 521.267722,105.312 L521.267722,104.728 C521.267722,98.8879708 523.056205,94.1430183 526.633222,90.493 C530.21024,86.8429818 534.748362,85.018 540.247722,85.018 C545.406415,85.018 549.701205,86.6239839 553.132222,89.836 C556.56324,93.0480161 558.278722,97.8659679 558.278722,104.29 L558.278722,106.845 L530.319722,106.845 C530.465723,110.495018 531.439047,113.293324 533.239722,115.24 C535.040398,117.186676 537.571039,118.16 540.831722,118.16 C545.990415,118.16 548.910386,116.213353 549.591722,112.32 L558.132722,112.32 C557.500053,116.310687 555.650738,119.376656 552.584722,121.518 C549.518707,123.659344 545.52808,124.73 540.612722,124.73 Z M530.465722,100.932 L549.518722,100.932 C549.08072,94.6053017 545.990418,91.442 540.247722,91.442 C537.619709,91.442 535.441898,92.2814916 533.714222,93.9605 C531.986547,95.6395084 530.903725,97.9633185 530.465722,100.932 Z M581.607438,124.657 C577.860086,124.657 575.000948,123.683676 573.029938,121.737 C571.058928,119.790324 570.073438,116.992018 570.073438,113.342 L570.073438,92.464 L564.963438,92.464 L564.963438,85.821 L570.073438,85.821 L570.073438,77.426 L578.906438,77.426 L578.906438,85.821 L587.301438,85.821 L587.301438,92.464 L578.906438,92.464 L578.906438,112.539 C578.906438,115.799683 580.366423,117.43 583.286438,117.43 C584.98978,117.43 586.425432,117.186669 587.593438,116.7 L587.593438,123.708 C585.890096,124.34067 583.894783,124.657 581.607438,124.657 Z" id="Litewallet" fill-opacity="0.87" fill="#000000"></path>
    </g>
</svg>