<?xml version="1.0" encoding="utf-8"?>
<!-- Generator: Adobe Illustrator 19.0.0, SVG Export Plug-In . SVG Version: 6.00 Build 0)  -->
<svg version="1.1" id="Layer_1" xmlns="http://www.w3.org/2000/svg" xmlns:xlink="http://www.w3.org/1999/xlink" x="0px" y="0px"
	 viewBox="0 0 24 24" style="enable-background:new 0 0 24 24;" xml:space="preserve">
<style type="text/css">
	.st0{fill:none;stroke:#000000;stroke-miterlimit:10;}
</style>
<g id="XMLID_58_">
	<g id="XMLID_105_">
		<path id="XMLID_106_" d="M6.4,13.8v-0.4L7.7,12c0.1-0.1,0.3-0.3,0.4-0.4c0.1-0.1,0.2-0.2,0.2-0.3c0-0.1,0.1-0.2,0.1-0.3
			c0-0.2-0.1-0.4-0.2-0.5c-0.1-0.1-0.3-0.2-0.5-0.2c-0.2,0-0.4,0.1-0.5,0.2C7,10.6,7,10.8,7,11H6.4c0-0.2,0.1-0.4,0.2-0.6
			C6.7,10.2,6.8,10,7,9.9c0.2-0.1,0.4-0.1,0.7-0.1c0.2,0,0.5,0,0.7,0.1c0.2,0.1,0.3,0.2,0.4,0.4c0.1,0.2,0.2,0.4,0.2,0.6
			c0,0.1,0,0.3-0.1,0.4c-0.1,0.1-0.1,0.3-0.3,0.5C8.4,12,8.2,12.2,8,12.4l-0.8,0.8v0H9v0.5H6.4z"/>
		<path id="XMLID_108_" d="M9.5,13v-0.5l1.7-2.7H12v2.7h0.5V13H12v0.8h-0.6V13H9.5z M11.4,12.5v-2h0l-1.2,1.9v0H11.4z"/>
		<path id="XMLID_111_" d="M14.7,9.6l-1.3,4.7h-0.5l1.3-4.7H14.7z"/>
		<path id="XMLID_113_" d="M15.3,13.8l1.7-3.4v0h-2V9.8h2.6v0.5l-1.7,3.4H15.3z"/>
	</g>
	<g id="XMLID_104_">
		<path id="XMLID_103_" class="st0" d="M19.8,7.5C18.2,4.8,15.3,3,12,3c-5,0-9,4-9,9s4,9,9,9c5,0,9-4,9-9"/>
		<polygon id="XMLID_102_" points="20.7,6.2 20.8,9.1 18.3,7.8 		"/>
	</g>
</g>
</svg>
