<?xml version="1.0" encoding="utf-8"?>
<!-- Generator: Adobe Illustrator 19.0.0, SVG Export Plug-In . SVG Version: 6.00 Build 0)  -->
<svg version="1.1" id="Layer_1" xmlns="http://www.w3.org/2000/svg" xmlns:xlink="http://www.w3.org/1999/xlink" x="0px" y="0px"
	 viewBox="0 0 24 24" style="enable-background:new 0 0 24 24;" xml:space="preserve">
<style type="text/css">
	.st0{fill:#FFFFFF;}
	.st1{fill:none;stroke:#FFFFFF;stroke-miterlimit:10;}
</style>
<g id="XMLID_58_">
	<g id="XMLID_105_">
		<path id="XMLID_106_" class="st0" d="M6.8,13.6v-0.4L8.1,12c0.1-0.1,0.2-0.3,0.3-0.4c0.1-0.1,0.2-0.2,0.2-0.3
			c0-0.1,0.1-0.2,0.1-0.3c0-0.2-0.1-0.3-0.2-0.4c-0.1-0.1-0.3-0.2-0.5-0.2c-0.2,0-0.4,0.1-0.5,0.2c-0.1,0.1-0.2,0.3-0.2,0.5H6.8
			c0-0.2,0.1-0.4,0.2-0.6c0.1-0.2,0.2-0.3,0.4-0.4C7.6,10,7.8,10,8,10c0.2,0,0.4,0,0.6,0.1c0.2,0.1,0.3,0.2,0.4,0.4
			c0.1,0.2,0.1,0.3,0.1,0.5c0,0.1,0,0.3-0.1,0.4c0,0.1-0.1,0.3-0.3,0.4c-0.1,0.2-0.3,0.3-0.5,0.6l-0.7,0.8v0h1.6v0.5H6.8z"/>
		<path id="XMLID_108_" class="st0" d="M9.7,12.9v-0.4l1.6-2.5H12v2.4h0.5v0.5H12v0.7h-0.5v-0.7H9.7z M11.5,12.5v-1.8h0l-1.1,1.8v0
			H11.5z"/>
		<path id="XMLID_111_" class="st0" d="M14.5,9.8l-1.2,4.3h-0.5L14,9.8H14.5z"/>
		<path id="XMLID_113_" class="st0" d="M15,13.6l1.6-3.1v0h-1.8V10h2.4v0.5l-1.6,3.1H15z"/>
	</g>
	<g id="XMLID_104_">
		<path id="XMLID_103_" class="st1" d="M19.8,7.5C18.2,4.8,15.3,3,12,3c-5,0-9,4-9,9s4,9,9,9c5,0,9-4,9-9"/>
		<polygon id="XMLID_102_" class="st0" points="20.7,6.2 20.8,9.1 18.3,7.8 		"/>
	</g>
</g>
</svg>
