<?xml version="1.0" encoding="utf-8"?>
<!-- Generator: Adobe Illustrator 19.0.0, SVG Export Plug-In . SVG Version: 6.00 Build 0)  -->
<svg version="1.1" id="Layer_1" xmlns="http://www.w3.org/2000/svg" xmlns:xlink="http://www.w3.org/1999/xlink" x="0px" y="0px"
	 viewBox="-744 163.8 909.8 1274.2" style="enable-background:new -744 163.8 909.8 1274.2;" xml:space="preserve">
<style type="text/css">
	.st0{fill:#FFFFFF;}
	.st1{font-family:'HelveticaNeue-Bold';}
	.st2{font-size:5px;}
</style>
<title>1Asset 5</title>
<g>
	<g>
		<path class="st0" d="M142.9,721.3c-16.7-16.7-40-24.9-63.4-22.5c9.9-43.2-17.1-86.2-60.2-96.1c-9.1-2.1-18.5-2.6-27.8-1.4
			c1.2-5.7,1.8-11.6,1.8-17.5c0-42.1-32-77.4-73.9-81.5l139-139c32-32,32-83.9,0-115.9s-83.9-32-115.9,0L-332,521.9
			c-18.6,18.6-41.1,31.6-65,37.4c-17.9,4.4-36,4.4-50.5,0.3c-14.4-22.4-27.9-40.7-30.8-44.6c-29.6-40.4-56.9-81.5-88.7-130.9
			c-32.7-50.7-74.1-72.4-113.5-59.7c-10.5,3.4-20.5,9.6-30.6,18.9c-17.9,16.5-34.2,35.1-32.8,58.8c1,18.1,11.5,34.4,27.3,59.1
			c9,14,20.1,31.3,31.9,53c7.1,13.1,12.5,26.6,18.1,40.9c2.2,5.7,4.6,11.5,7,17.4c7.4,17.6,16.7,40.9,23.8,65.2
			c11.7,40,5.4,78.5-1.4,119.2c-4.9,29.3-9.9,59.7-8,91.4c2.4,40.2,13.7,80.9,33.5,121.1c18.8,37.9,44.1,73,75.5,104.3
			c57.8,57.8,129,95.6,200.5,106.4c13.3,2,26.8,3.1,40.3,3.1c20,0.1,40-2.5,59.3-7.7c32.3-8.8,60.2-24.7,82.8-47.3L76.2,898.8l0,0
			l66.7-66.7C173.5,801.5,173.5,751.9,142.9,721.3z M36.8,645.4c19.6,19.6,19.6,51.5,0,71.1l-4.8,4.8l0,0l-66.7,66.7l0,0l-4.8,4.8
			c-19.5,19.8-51.3,20-71.1,0.5c-19.8-19.5-20-51.3-0.5-71.1c0.2-0.2,0.3-0.3,0.5-0.5l38.2-38.2l38.2-38.2
			C-14.6,625.7,17.2,625.8,36.8,645.4z M-88.6,531.8c28.7,0,51.9,23.2,51.9,51.9c0,13.8-5.5,27-15.2,36.7l-41.8,41.8l-38.1,38.2l0,0
			l-3.6,3.6c-20.3,20.3-53.2,20.3-73.5,0c-20.3-20.3-20.3-53.2,0-73.5l35.3-35.4l0,0l48.2-48.2C-115.6,537.3-102.4,531.8-88.6,531.8
			z M-174.4,1107c-37.6,37.6-93.2,53-156.7,43.4c-65.2-9.8-130.4-44.6-183.8-98c-5.3-5.3-10.5-10.8-15.4-16.3
			c15.1,4.3,30.8,6.5,46.5,6.6c8.5,0,17-0.7,25.4-2.1c38.6-6.6,69.2-28.2,88.5-62.7c3.6-5.9,1.7-13.6-4.2-17.1
			c-5.9-3.6-13.6-1.7-17.1,4.2c-0.2,0.3-0.3,0.5-0.4,0.8c-15.7,28-39.5,44.9-70.9,50.2c-36.9,6.3-75.6-5.3-99.9-21.4
			c-8.2-12.4-15.7-25.3-22.3-38.6c-18.1-36.5-28.3-73.4-30.5-109.5c-1.7-28.4,2.8-55.8,7.6-84.8c7-42.2,14.2-85.9,0.6-132.5
			c-7.5-25.7-17.3-50-24.9-68.4c-2.3-5.6-4.6-11.3-6.8-16.9c-5.8-14.5-11.7-29.6-19.7-44.2c-12.4-22.7-23.8-40.5-33-54.9
			c-12.8-19.9-22-34.3-22.6-44.6c-0.4-6.3,2.1-15.5,23.3-35c6.8-6.3,13.1-10.3,19.4-12.3c36.2-11.7,67.3,29.3,79,47.4
			c32.2,49.8,59.7,91.4,89.8,132.4l0,0l0.1,0.1c15.4,20.7,56.9,80.6,63.4,108.8c1.9,8.1,9.9,13.1,18,11.2c8.1-1.9,13.1-9.9,11.2-18
			c-2.8-11.9-9.6-26.9-18-42.2c12.8,0.3,25.5-1.1,37.9-4.1c29.2-7.1,56.6-22.8,79.1-45.3l274.6-274.6c20.3-20.3,53.2-20.3,73.5,0
			c20.3,20.3,20.3,53.2,0,73.5l-183.9,183.8l-83.5,83.5c-32,31.9-32.1,83.8-0.2,115.8c19.8,19.8,48.3,28.2,75.6,22.2
			c-5.5,44,25.8,84,69.7,89.5c9.3,1.1,18.6,0.7,27.7-1.4c-2.4,23.4,5.9,46.7,22.5,63.4l0,0c12.4,12.4,28.7,20.3,46.1,22.4
			L-174.4,1107z M121.7,811l-31.3,31.3l0,0L55,877.6c-18.9,18.9-49.5,18.9-68.5,0l0,0c-18.9-18.9-18.9-49.5,0-68.5l66.7-66.7
			c19.2-18.6,49.8-18.2,68.5,1C140,762.2,140,792.2,121.7,811L121.7,811z"/>
		<path class="st0" d="M-471,331.9c5.5,6.2,15,6.7,21.2,1.2s6.7-15,1.2-21.2c-0.3-0.4-0.7-0.7-1.1-1.1l-75-75.8
			c-5.8-5.9-15.3-5.9-21.2-0.1c-5.9,5.8-5.9,15.3-0.1,21.2L-471,331.9z"/>
		<path class="st0" d="M-413.1,286.2c1.6,6.8,7.6,11.7,14.6,11.7c1.1,0,2.2-0.1,3.3-0.4c8.1-1.8,13.1-9.9,11.3-17.9c0,0,0,0,0,0
			l-23.6-104c-1.6-8.1-9.6-13.4-17.7-11.7c-8.1,1.6-13.4,9.6-11.7,17.7c0,0.2,0.1,0.5,0.2,0.7L-413.1,286.2z"/>
		<path class="st0" d="M-330.5,297c7.8,2.7,16.4-1.4,19.1-9.2l35-100.7c2.7-7.8-1.4-16.4-9.2-19.1s-16.4,1.4-19.1,9.2l0,0l-35,100.7
			C-342.5,285.8-338.4,294.3-330.5,297z"/>
		<path class="st0" d="M-275.5,330.9c5.2,6.4,14.6,7.5,21.1,2.3l83-66.9c6.5-5.2,7.5-14.6,2.3-21.1c-5.2-6.5-14.6-7.5-21.1-2.3l0,0
			l-83,67C-279.6,315-280.6,324.4-275.5,330.9z"/>
	</g>
</g>
<text transform="matrix(1 0 0 1 -744 1198.1649)" class="st1 st2">Created by Nate Gallagher</text>
<text transform="matrix(1 0 0 1 -744 1203.1649)" class="st1 st2">from the Noun Project</text>
</svg>
