<?xml version="1.0" encoding="utf-8"?>
<!-- Generator: Adobe Illustrator 19.0.0, SVG Export Plug-In . SVG Version: 6.00 Build 0)  -->
<svg version="1.1" id="Layer_1" xmlns="http://www.w3.org/2000/svg" xmlns:xlink="http://www.w3.org/1999/xlink" x="0px" y="0px"
	 viewBox="0 0 24 24" style="enable-background:new 0 0 24 24;" xml:space="preserve">
<style type="text/css">
	.st0{fill:#FFFFFF;}
	.st1{fill:none;stroke:#FFFFFF;stroke-miterlimit:10;}
</style>
<g id="XMLID_135_">
	<g id="XMLID_131_">
		<g id="XMLID_115_">
			<path id="XMLID_21_" class="st0" d="M19,8.9v2H5v-2H19 M20,7.9H4v4h16V7.9L20,7.9z"/>
		</g>
		<g id="XMLID_129_">
			<path id="XMLID_17_" class="st0" d="M18,11.9v7H6v-7H18 M19,10.9H5v9h14V10.9L19,10.9z"/>
		</g>
		<g id="XMLID_130_">
			<path id="XMLID_13_" class="st0" d="M13,8.9v10h-2v-10H13 M14,7.9h-4v12h4V7.9L14,7.9z"/>
		</g>
	</g>
	<g id="XMLID_134_">
		
			<ellipse id="XMLID_132_" transform="matrix(0.7071 -0.7071 0.7071 0.7071 -1.1952 9.1144)" class="st1" cx="10.4" cy="6" rx="1" ry="2.5"/>
		
			<ellipse id="XMLID_133_" transform="matrix(0.7071 0.7071 -0.7071 0.7071 8.2247 -7.8561)" class="st1" cx="13.6" cy="6" rx="1" ry="2.5"/>
	</g>
</g>
</svg>
