<?xml version="1.0" encoding="utf-8"?>
<!-- Generator: Adobe Illustrator 19.0.0, SVG Export Plug-In . SVG Version: 6.00 Build 0)  -->
<svg version="1.1" id="Layer_1" xmlns="http://www.w3.org/2000/svg" xmlns:xlink="http://www.w3.org/1999/xlink" x="0px" y="0px"
	 viewBox="0 0 24 24" style="enable-background:new 0 0 24 24;" xml:space="preserve">
<style type="text/css">
	.st0{clip-path:url(#XMLID_2_);}
	.st1{fill:#FFFFFF;}
	.st2{clip-path:url(#XMLID_2_);fill:none;stroke:#FFFFFF;stroke-miterlimit:10;}
	.st3{fill:none;stroke:#FFFFFF;stroke-width:0.2111;stroke-miterlimit:10;}
</style>
<g id="XMLID_49_">
	<g id="XMLID_46_">
		<defs>
			<ellipse id="XMLID_45_" cx="12" cy="12" rx="6.7" ry="6.6"/>
		</defs>
		<clipPath id="XMLID_2_">
			<use xlink:href="#XMLID_45_"  style="overflow:visible;"/>
		</clipPath>
		<g id="XMLID_17_" class="st0">
			<path id="XMLID_13_" class="st1" d="M12,6.4c3.1,0,5.7,2.5,5.7,5.6s-2.6,5.6-5.7,5.6S6.3,15.1,6.3,12S8.9,6.4,12,6.4 M12,5.4
				c-3.7,0-6.7,3-6.7,6.6s3,6.6,6.7,6.6s6.7-3,6.7-6.6S15.7,5.4,12,5.4L12,5.4z"/>
		</g>
		<line id="XMLID_42_" class="st2" x1="5.3" y1="12" x2="18.7" y2="12"/>
		<ellipse id="XMLID_41_" class="st2" cx="12" cy="6.9" rx="6.7" ry="2.2"/>
		<ellipse id="XMLID_44_" class="st2" cx="12" cy="17.1" rx="6.7" ry="2.2"/>
		<ellipse id="XMLID_43_" class="st2" cx="12" cy="12" rx="2.6" ry="6.6"/>
	</g>
	<g id="XMLID_47_">
		<polyline id="XMLID_48_" class="st3" points="11.2,3.2 12,2.4 12.8,3.2 		"/>
		<line id="XMLID_50_" class="st3" x1="12" y1="4" x2="12" y2="2.4"/>
	</g>
	<g id="XMLID_52_">
		<polyline id="XMLID_54_" class="st3" points="6.9,4.8 7.2,3.7 8.3,4 		"/>
		<line id="XMLID_53_" class="st3" x1="8" y1="5.1" x2="7.2" y2="3.7"/>
	</g>
	<g id="XMLID_55_">
		<polyline id="XMLID_57_" class="st3" points="4,8.3 3.7,7.2 4.8,6.9 		"/>
		<line id="XMLID_56_" class="st3" x1="5.1" y1="8" x2="3.7" y2="7.2"/>
	</g>
	<g id="XMLID_59_">
		<polyline id="XMLID_61_" class="st3" points="3.2,12.8 2.4,12 3.2,11.2 		"/>
		<line id="XMLID_60_" class="st3" x1="4" y1="12" x2="2.4" y2="12"/>
	</g>
	<g id="XMLID_65_">
		<polyline id="XMLID_67_" class="st3" points="4.8,17.1 3.7,16.8 4,15.7 		"/>
		<line id="XMLID_66_" class="st3" x1="5.1" y1="16" x2="3.7" y2="16.8"/>
	</g>
	<g id="XMLID_68_">
		<polyline id="XMLID_70_" class="st3" points="8.3,20 7.2,20.3 6.9,19.2 		"/>
		<line id="XMLID_69_" class="st3" x1="8" y1="18.9" x2="7.2" y2="20.3"/>
	</g>
	<g id="XMLID_71_">
		<polyline id="XMLID_73_" class="st3" points="12.8,20.8 12,21.6 11.2,20.8 		"/>
		<line id="XMLID_72_" class="st3" x1="12" y1="20" x2="12" y2="21.6"/>
	</g>
	<g id="XMLID_74_">
		<polyline id="XMLID_76_" class="st3" points="17.1,19.2 16.8,20.3 15.7,20 		"/>
		<line id="XMLID_75_" class="st3" x1="16" y1="18.9" x2="16.8" y2="20.3"/>
	</g>
	<g id="XMLID_77_">
		<polyline id="XMLID_79_" class="st3" points="20,15.7 20.3,16.8 19.2,17.1 		"/>
		<line id="XMLID_78_" class="st3" x1="18.9" y1="16" x2="20.3" y2="16.8"/>
	</g>
	<g id="XMLID_80_">
		<polyline id="XMLID_82_" class="st3" points="20.8,11.2 21.6,12 20.8,12.8 		"/>
		<line id="XMLID_81_" class="st3" x1="20" y1="12" x2="21.6" y2="12"/>
	</g>
	<g id="XMLID_83_">
		<polyline id="XMLID_85_" class="st3" points="19.2,6.9 20.3,7.2 20,8.3 		"/>
		<line id="XMLID_84_" class="st3" x1="18.9" y1="8" x2="20.3" y2="7.2"/>
	</g>
	<g id="XMLID_86_">
		<polyline id="XMLID_92_" class="st3" points="15.7,4 16.8,3.7 17.1,4.8 		"/>
		<line id="XMLID_87_" class="st3" x1="16" y1="5.1" x2="16.8" y2="3.7"/>
	</g>
</g>
</svg>
