<?xml version="1.0" encoding="utf-8"?>
<!-- Generator: Adobe Illustrator 19.0.0, SVG Export Plug-In . SVG Version: 6.00 Build 0)  -->
<svg version="1.1" id="Layer_1" xmlns="http://www.w3.org/2000/svg" xmlns:xlink="http://www.w3.org/1999/xlink" x="0px" y="0px"
	 viewBox="0 0 24 24" style="enable-background:new 0 0 24 24;" xml:space="preserve">
<style type="text/css">
	.st0{fill:#231F20;}
	.st1{fill:#FFFFFF;}
	.st2{fill:none;stroke:#000000;stroke-width:0.5;stroke-miterlimit:10;}
</style>
<g id="XMLID_52_">
	<g id="XMLID_89_">
		<path id="XMLID_130_" class="st0" d="M12,14.6c-1.9,0-3.4,1.5-3.4,3.4c0,1.9,1.5,3.4,3.4,3.4s3.4-1.5,3.4-3.4
			C15.4,16.1,13.9,14.6,12,14.6z M13.2,19.7L12,18.8l-1.2,0.9l0.5-1.4L10,17.4h1.5l0.5-1.4l0.5,1.4H14l-1.2,0.9L13.2,19.7z"/>
		<path id="XMLID_133_" d="M12,15.4c-1.4,0-2.6,1.1-2.6,2.6s1.1,2.6,2.6,2.6s2.6-1.1,2.6-2.6S13.4,15.4,12,15.4z M13.2,19.7L12,18.8
			l-1.2,0.9l0.5-1.4L10,17.4h1.5l0.5-1.4l0.5,1.4H14l-1.2,0.9L13.2,19.7z"/>
	</g>
	<g id="XMLID_32_">
		<polygon id="XMLID_97_" class="st0" points="16.6,2.6 12,10.5 12.6,11.5 17.5,3.1 		"/>
		<path id="XMLID_98_" class="st0" d="M18.3,3.6l-5.2,9l0.2,0.4l-0.7,0.4l-0.1,0.2h0.8c0.1,0,0.2,0,0.3,0.1l5.5-9.6L18.3,3.6z"/>
		<polygon id="XMLID_93_" class="st1" points="12.5,13.5 12.3,13.6 12.6,13.6 12.7,13.4 		"/>
		<path id="XMLID_94_" class="st0" d="M4.8,4.1l5.6,9.7c0.2-0.1,0.4-0.2,0.6-0.2h0.4l-5.8-10L4.8,4.1z"/>
		<polygon id="XMLID_92_" class="st0" points="12.6,11.5 12,10.5 7.4,2.6 6.5,3.1 12.5,13.5 12.7,13.4 13.4,13 13.2,12.5 		"/>
		<path id="XMLID_96_" class="st2" d="M13.7,13.6c-0.1,0-0.2-0.1-0.3-0.1h-0.8h-0.2h-0.9H11c-0.2,0-0.5,0.1-0.6,0.2
			c-0.3,0.2-0.5,0.5-0.5,0.9c0,0.6,0.5,1.1,1.1,1.1h2.3c0.6,0,1.1-0.5,1.1-1.1C14.4,14.2,14.1,13.8,13.7,13.6z"/>
	</g>
</g>
</svg>
