<?xml version="1.0" encoding="utf-8"?>
<!-- Generator: Adobe Illustrator 19.0.0, SVG Export Plug-In . SVG Version: 6.00 Build 0)  -->
<svg version="1.1" id="Layer_1" xmlns="http://www.w3.org/2000/svg" xmlns:xlink="http://www.w3.org/1999/xlink" x="0px" y="0px"
	 viewBox="0 0 24 24" style="enable-background:new 0 0 24 24;" xml:space="preserve">
<style type="text/css">
	.st0{fill:#FFFFFF;}
	.st1{fill:none;stroke:#FFFFFF;stroke-width:0.5;stroke-miterlimit:10;}
</style>
<g id="XMLID_52_">
	<g id="XMLID_89_">
		<path id="XMLID_130_" class="st0" d="M12,14.4c-1.8,0-3.2,1.4-3.2,3.2c0,1.8,1.4,3.2,3.2,3.2s3.2-1.4,3.2-3.2
			C15.2,15.8,13.8,14.4,12,14.4z M13.1,19.2L12,18.3l-1.1,0.8l0.4-1.3L10.2,17h1.4l0.4-1.3l0.4,1.3h1.4l-1.1,0.8L13.1,19.2z"/>
		<path id="XMLID_133_" class="st0" d="M12,15.2c-1.3,0-2.4,1.1-2.4,2.4S10.7,20,12,20s2.4-1.1,2.4-2.4S13.3,15.2,12,15.2z
			 M13.1,19.2L12,18.3l-1.1,0.8l0.4-1.3L10.2,17h1.4l0.4-1.3l0.4,1.3h1.4l-1.1,0.8L13.1,19.2z"/>
	</g>
	<g id="XMLID_32_">
		<polygon id="XMLID_97_" class="st0" points="16.3,3.2 12,10.6 12.5,11.6 17.1,3.7 		"/>
		<path id="XMLID_98_" class="st0" d="M17.9,4.1l-4.8,8.4l0.2,0.4l-0.7,0.4l-0.1,0.2h0.7c0.1,0,0.2,0,0.3,0.1l5.2-8.9L17.9,4.1z"/>
		<polygon id="XMLID_93_" class="st0" points="12.5,13.4 12.3,13.5 12.5,13.5 12.6,13.3 		"/>
		<path id="XMLID_94_" class="st0" d="M5.3,4.6l5.2,9.1c0.2-0.1,0.4-0.2,0.6-0.2h0.4L6.1,4.1L5.3,4.6z"/>
		<polygon id="XMLID_92_" class="st0" points="12.5,11.6 12,10.6 7.7,3.2 6.9,3.7 12.5,13.4 12.6,13.3 13.3,12.9 13.1,12.5 		"/>
		<path id="XMLID_96_" class="st1" d="M13.6,13.5c-0.1,0-0.2-0.1-0.3-0.1h-0.7h-0.2h-0.8h-0.4c-0.2,0-0.4,0.1-0.6,0.2
			c-0.3,0.2-0.4,0.5-0.4,0.8c0,0.6,0.5,1,1,1h2.1c0.6,0,1-0.5,1-1C14.3,14,14,13.7,13.6,13.5z"/>
	</g>
</g>
</svg>
