<?xml version="1.0" encoding="utf-8"?>
<!-- Generator: Adobe Illustrator 19.0.0, SVG Export Plug-In . SVG Version: 6.00 Build 0)  -->
<svg version="1.1" id="Layer_1" xmlns="http://www.w3.org/2000/svg" xmlns:xlink="http://www.w3.org/1999/xlink" x="0px" y="0px"
	 viewBox="0 0 24 24" style="enable-background:new 0 0 24 24;" xml:space="preserve">
<style type="text/css">
	.st0{fill:#231F20;}
</style>
<g id="XMLID_11_">
	<g id="XMLID_40_">
		<path id="XMLID_14_" class="st0" d="M12,3.6l1.4,1.3l0.4,0.4l0.5-0.1l1.9-0.4l0.5,1.8l0.2,0.5l0.5,0.2l1.8,0.5l-0.4,1.9l-0.1,0.5
			l0.4,0.4l1.3,1.4l-1.3,1.4l-0.4,0.4l0.1,0.5l0.4,1.9l-1.8,0.5l-0.5,0.2l-0.2,0.5l-0.5,1.8l-1.9-0.4l-0.5-0.1l-0.4,0.4L12,20.4
			l-1.4-1.3l-0.4-0.4l-0.5,0.1l-1.9,0.4l-0.5-1.8l-0.2-0.5l-0.5-0.2l-1.8-0.5l0.4-1.9l0.1-0.5l-0.4-0.4L3.6,12l1.3-1.4l0.4-0.4
			L5.2,9.7L4.7,7.8l1.8-0.5l0.5-0.2l0.2-0.5l0.5-1.8l1.9,0.4l0.5,0.1l0.4-0.4L12,3.6 M12,2.2l-2.1,2L7.1,3.6L6.3,6.3L3.6,7.1
			l0.7,2.8l-2,2.1l2,2.1l-0.7,2.8l2.7,0.8l0.8,2.7l2.8-0.7l2.1,2l2.1-2l2.8,0.7l0.8-2.7l2.7-0.8l-0.7-2.8l2-2.1l-2-2.1l0.7-2.8
			l-2.7-0.8l-0.8-2.7l-2.8,0.7L12,2.2L12,2.2z"/>
	</g>
	<g id="XMLID_25_">
		<path id="XMLID_26_" d="M8.2,9.9V9.5c0-0.3,0.1-0.6,0.2-0.9C8.5,8.3,8.7,8.1,9,7.9c0.3-0.2,0.6-0.2,1-0.2c0.4,0,0.7,0.1,1,0.2
			c0.3,0.2,0.5,0.4,0.6,0.7c0.1,0.3,0.2,0.6,0.2,0.9v0.4c0,0.3-0.1,0.6-0.2,0.9c-0.1,0.3-0.3,0.5-0.6,0.6c-0.3,0.2-0.6,0.2-1,0.2
			c-0.4,0-0.7-0.1-1-0.2c-0.3-0.2-0.5-0.4-0.6-0.6C8.2,10.5,8.2,10.2,8.2,9.9z M8.5,16l5.5-8h1l-5.5,8H8.5z M9.3,9.5v0.4
			c0,0.2,0,0.4,0.1,0.5c0.1,0.2,0.2,0.2,0.5,0.2c0.2,0,0.4-0.1,0.5-0.2c0.1-0.2,0.1-0.3,0.1-0.5V9.5c0-0.2,0-0.4-0.1-0.5
			c-0.1-0.2-0.3-0.2-0.5-0.2C9.7,8.7,9.5,8.8,9.4,9C9.4,9.1,9.3,9.3,9.3,9.5z M12.3,14.5v-0.4c0-0.3,0.1-0.6,0.2-0.9
			c0.1-0.3,0.3-0.5,0.6-0.7c0.3-0.2,0.6-0.2,1-0.2c0.4,0,0.7,0.1,1,0.2c0.3,0.2,0.5,0.4,0.6,0.7c0.1,0.3,0.2,0.6,0.2,0.9v0.4
			c0,0.3-0.1,0.6-0.2,0.9c-0.1,0.3-0.3,0.5-0.6,0.7c-0.3,0.2-0.6,0.2-1,0.2c-0.4,0-0.7-0.1-1-0.2c-0.3-0.2-0.5-0.4-0.6-0.7
			C12.4,15.1,12.3,14.8,12.3,14.5z M13.4,14.1v0.4c0,0.2,0,0.4,0.1,0.5c0.1,0.2,0.3,0.2,0.5,0.2c0.2,0,0.4-0.1,0.5-0.2
			s0.1-0.3,0.1-0.5v-0.4c0-0.2,0-0.4-0.1-0.5c-0.1-0.2-0.2-0.2-0.5-0.2c-0.2,0-0.4,0.1-0.5,0.2C13.5,13.7,13.4,13.9,13.4,14.1z"/>
	</g>
</g>
</svg>
